<svg width="357" height="395" viewBox="0 0 357 395" fill="none" xmlns="http://www.w3.org/2000/svg">
<path d="M169.027 163.526C215.678 163.526 257.899 167.498 288.444 173.914C303.721 177.123 316.05 180.939 324.549 185.159C328.798 187.27 332.064 189.469 334.261 191.725C336.456 193.978 337.554 196.253 337.554 198.531C337.554 200.81 336.456 203.085 334.261 205.338C332.064 207.594 328.798 209.793 324.549 211.904C316.05 216.124 303.721 219.94 288.444 223.149C257.899 229.565 215.678 233.537 169.027 233.537C122.375 233.537 80.1544 229.565 49.6094 223.149C34.3329 219.94 22.0032 216.124 13.5051 211.904C9.25539 209.793 5.98967 207.594 3.79259 205.338C1.59722 203.085 0.500079 200.81 0.500079 198.531C0.500079 196.253 1.59722 193.978 3.79259 191.725C5.98967 189.469 9.25539 187.27 13.5051 185.159C22.0032 180.939 34.3329 177.123 49.6094 173.914C80.1544 167.498 122.375 163.526 169.027 163.526Z" stroke="black"/>
<path d="M169.027 188.53C215.678 188.53 257.899 192.502 288.444 198.918C303.721 202.127 316.05 205.943 324.549 210.163C328.798 212.274 332.064 214.473 334.261 216.729C336.456 218.982 337.554 221.257 337.554 223.535C337.554 225.814 336.456 228.089 334.261 230.342C332.064 232.598 328.798 234.797 324.549 236.908C316.05 241.128 303.721 244.944 288.444 248.153C257.899 254.569 215.678 258.541 169.027 258.541C122.375 258.541 80.1544 254.569 49.6094 248.153C34.3329 244.944 22.0032 241.128 13.5051 236.908C9.25539 234.797 5.98967 232.598 3.79259 230.342C1.59722 228.089 0.500079 225.814 0.500079 223.535C0.500079 221.257 1.59722 218.982 3.79259 216.729C5.98967 214.473 9.25539 212.274 13.5051 210.163C22.0032 205.943 34.3329 202.127 49.6094 198.918C80.1544 192.502 122.375 188.53 169.027 188.53Z" stroke="black"/>
<path d="M169.027 213.534C215.678 213.534 257.899 217.506 288.444 223.922C303.721 227.131 316.05 230.947 324.549 235.167C328.798 237.278 332.064 239.477 334.261 241.733C336.456 243.986 337.554 246.261 337.554 248.539C337.554 250.818 336.456 253.093 334.261 255.346C332.064 257.601 328.798 259.801 324.549 261.912C316.05 266.132 303.721 269.948 288.444 273.157C257.899 279.573 215.678 283.545 169.027 283.545C122.375 283.545 80.1544 279.573 49.6094 273.157C34.3329 269.948 22.0032 266.132 13.5051 261.912C9.25539 259.801 5.98967 257.601 3.79259 255.346C1.59722 253.093 0.500079 250.818 0.500079 248.539C0.500079 246.261 1.59722 243.986 3.79259 241.733C5.98967 239.477 9.25539 237.278 13.5051 235.167C22.0032 230.947 34.3329 227.131 49.6094 223.922C80.1544 217.506 122.375 213.534 169.027 213.534Z" stroke="black"/>
<path d="M252.383 66.6395L252.551 67.5449L253.219 66.911L300.359 22.1793L272.384 80.8361L271.987 81.6673L272.901 81.5471L337.331 73.0663L280.221 104.077L279.412 104.517L280.221 104.956L337.331 135.966L272.901 127.486L271.987 127.366L272.384 128.197L300.359 186.853L253.219 142.122L252.551 141.488L252.383 142.394L240.538 206.292L228.694 142.394L228.526 141.488L227.857 142.122L180.716 186.853L208.692 128.197L209.089 127.366L208.176 127.486L143.744 135.966L200.855 104.956L201.665 104.517L200.855 104.077L143.744 73.0663L208.176 81.5471L209.089 81.6673L208.692 80.8361L180.716 22.1793L227.857 66.911L228.526 67.5449L228.694 66.6395L240.538 2.74067L252.383 66.6395Z" stroke="black"/>
<path d="M277.044 177.028L294.836 222.096L341.164 207.907L317.022 249.916L357.001 277.291L309.104 284.608L312.628 332.932L277.044 300.048L241.46 332.932L244.984 284.608L197.087 277.291L237.066 249.916L212.924 207.907L259.252 222.096L277.044 177.028Z" fill="#D9D9D9"/>
<path d="M112.212 306.151L135.156 264.042L158.283 306.151L200.3 329.187L158.283 352.222L135.156 394.331L112.212 352.222L70.0111 329.187L112.212 306.151Z" fill="#B9FF66"/>
<circle cx="152.524" cy="186.53" r="62.0099" fill="black" stroke="black"/>
<ellipse cx="132.021" cy="173.027" rx="10.0016" ry="20.0032" fill="white"/>
<ellipse cx="173.027" cy="173.027" rx="10.0016" ry="20.0032" fill="white"/>
</svg>
